<svg width="171" height="47" viewBox="0 0 171 47" fill="none" xmlns="http://www.w3.org/2000/svg">
<path d="M33.4841 17.8203C33.4841 20.3672 33.1794 22.7031 32.5701 24.8281C31.9763 26.9375 31.0544 28.7656 29.8044 30.3125C28.5544 31.8594 26.9685 33.0703 25.0466 33.9453L33.2966 43.1562H23.9919L17.7107 35.4688C17.6013 35.4688 17.5076 35.4688 17.4294 35.4688C17.3513 35.4688 17.2654 35.4688 17.1716 35.4688C14.3748 35.4688 11.9529 35.0547 9.90601 34.2266C7.85913 33.3828 6.16382 32.1797 4.82007 30.6172C3.49194 29.0547 2.49976 27.1875 1.84351 25.0156C1.18726 22.8438 0.859131 20.4297 0.859131 17.7734C0.859131 14.2266 1.43726 11.1406 2.59351 8.51562C3.76538 5.875 5.56226 3.82812 7.98413 2.375C10.406 0.921875 13.4841 0.195312 17.2185 0.195312C20.9373 0.195312 23.9919 0.921875 26.3826 2.375C28.7888 3.82812 30.5701 5.875 31.7263 8.51562C32.8982 11.1562 33.4841 14.2578 33.4841 17.8203ZM8.47632 17.8203C8.47632 20.2109 8.77319 22.2734 9.36694 24.0078C9.97632 25.7266 10.9216 27.0547 12.2029 27.9922C13.4841 28.9141 15.1404 29.375 17.1716 29.375C19.2341 29.375 20.906 28.9141 22.1873 27.9922C23.4685 27.0547 24.3982 25.7266 24.9763 24.0078C25.5701 22.2734 25.8669 20.2109 25.8669 17.8203C25.8669 14.2266 25.1951 11.3984 23.8513 9.33594C22.5076 7.27344 20.2966 6.24219 17.2185 6.24219C15.1716 6.24219 13.4998 6.71094 12.2029 7.64844C10.9216 8.57031 9.97632 9.89844 9.36694 11.6328C8.77319 13.3516 8.47632 15.4141 8.47632 17.8203ZM83.1594 0.734375L74.4407 35H66.1673L61.5266 17C61.4329 16.6562 61.3079 16.1328 61.1516 15.4297C60.9954 14.7266 60.8313 13.9609 60.6594 13.1328C60.4876 12.2891 60.3313 11.5 60.1907 10.7656C60.0657 10.0156 59.9798 9.42188 59.9329 8.98438C59.886 9.42188 59.7923 10.0078 59.6516 10.7422C59.5266 11.4766 59.3782 12.2578 59.2063 13.0859C59.0501 13.9141 58.8938 14.6875 58.7376 15.4062C58.5813 16.125 58.4563 16.6719 58.3626 17.0469L53.7454 35H45.4954L36.7532 0.734375H43.9016L48.2844 19.4375C48.4094 20 48.5501 20.6719 48.7063 21.4531C48.8782 22.2344 49.0423 23.0547 49.1985 23.9141C49.3704 24.7578 49.5188 25.5781 49.6438 26.375C49.7844 27.1562 49.886 27.8359 49.9485 28.4141C50.0266 27.8203 50.1282 27.1328 50.2532 26.3516C50.3782 25.5547 50.511 24.75 50.6516 23.9375C50.8079 23.1094 50.9641 22.3438 51.1204 21.6406C51.2766 20.9375 51.4173 20.3672 51.5423 19.9297L56.5344 0.734375H63.4016L68.3938 19.9297C68.5032 20.3516 68.6282 20.9219 68.7688 21.6406C68.9251 22.3438 69.0813 23.1094 69.2376 23.9375C69.3938 24.7656 69.5344 25.5781 69.6594 26.375C69.8001 27.1562 69.9016 27.8359 69.9641 28.4141C70.0735 27.6328 70.2219 26.6875 70.4094 25.5781C70.6126 24.4531 70.8235 23.3359 71.0423 22.2266C71.2766 21.1172 71.4798 20.1875 71.6516 19.4375L76.011 0.734375H83.1594ZM107.686 35H87.9519V0.734375H107.686V6.6875H95.2176V14.2109H106.819V20.1641H95.2176V29H107.686V35ZM125.323 0.734375C128.432 0.734375 130.994 1.10938 133.01 1.85938C135.041 2.60938 136.549 3.74219 137.534 5.25781C138.518 6.77344 139.01 8.6875 139.01 11C139.01 12.5625 138.713 13.9297 138.119 15.1016C137.526 16.2734 136.744 17.2656 135.776 18.0781C134.807 18.8906 133.76 19.5547 132.635 20.0703L142.713 35H134.651L126.471 21.8516H122.604V35H115.338V0.734375H125.323ZM124.807 6.6875H122.604V15.9453H124.948C127.354 15.9453 129.073 15.5469 130.104 14.75C131.151 13.9375 131.674 12.75 131.674 11.1875C131.674 9.5625 131.112 8.40625 129.987 7.71875C128.877 7.03125 127.151 6.6875 124.807 6.6875ZM143.193 8.79688H151.021L155.967 23.5391C156.123 24.0078 156.256 24.4844 156.365 24.9688C156.474 25.4531 156.568 25.9531 156.646 26.4688C156.724 26.9844 156.787 27.5234 156.834 28.0859H156.974C157.068 27.2422 157.193 26.4531 157.349 25.7188C157.521 24.9844 157.732 24.2578 157.982 23.5391L162.834 8.79688H170.498L159.412 38.3516C158.74 40.1641 157.865 41.6719 156.787 42.875C155.709 44.0938 154.467 45.0078 153.06 45.6172C151.67 46.2266 150.139 46.5312 148.467 46.5312C147.654 46.5312 146.951 46.4844 146.357 46.3906C145.764 46.3125 145.256 46.2266 144.834 46.1328V40.4609C145.162 40.5391 145.576 40.6094 146.076 40.6719C146.576 40.7344 147.099 40.7656 147.646 40.7656C148.646 40.7656 149.506 40.5547 150.224 40.1328C150.943 39.7109 151.545 39.1406 152.029 38.4219C152.514 37.7188 152.896 36.9453 153.178 36.1016L153.599 34.8125L143.193 8.79688Z" fill="white"/>
</svg>
